<svg width="114" height="32" viewBox="0 0 114 32" fill="none" xmlns="http://www.w3.org/2000/svg">
<path d="M49.6894 0.0556641C45.6327 2.19864 42.8856 6.29283 42.8601 10.9935L39.7357 5.56261L36.9971 7.14786L40.9904 14.0869H44.641C44.641 9.46276 47.469 5.44517 51.623 3.41339L49.6894 0.0556641Z" fill="#6FE200"/>
<path d="M46.4382 26.3365C46.0264 28.0137 45.0568 29.0514 43.41 29.0514C41.0091 29.0514 39.9229 27.1002 39.9229 24.9271L50.5482 24.9232V24.2179C50.5482 19.1382 47.9906 16.1538 43.1192 16.1538C38.2478 16.1538 35.2422 19.322 35.2422 24.0233C35.2422 28.7246 37.8914 31.9439 43.3229 31.9439C47.1884 31.9439 49.3522 30.0398 50.2958 27.7538L46.4382 26.3359V26.3365ZM43.1396 18.7598C45.0245 18.7598 45.8403 19.8225 45.9014 22.6741H40.0315C40.1945 19.9144 41.2342 18.7598 43.1396 18.7598Z" fill="#2D2220"/>
<path d="M11.4509 26.3365C11.0391 28.0137 10.0695 29.0514 8.42267 29.0514C6.02177 29.0514 4.9356 27.1002 4.9356 24.9271L15.5608 24.9232V24.2179C15.5608 19.1382 13.0033 16.1538 8.13189 16.1538C3.26052 16.1538 0.254883 19.322 0.254883 24.0233C0.254883 28.7246 2.90412 31.9439 8.33555 31.9439C12.2011 31.9439 14.3649 30.0398 15.3085 27.7538L11.4509 26.3359V26.3365ZM8.15226 18.7598C10.0372 18.7598 10.853 19.8225 10.9141 22.6741H5.04422C5.20715 19.9144 6.24693 18.7598 8.15226 18.7598Z" fill="#2D2220"/>
<path d="M33.857 28.9381C33.418 28.9381 33.0622 28.5812 33.0622 28.1409V10.8184C32.3698 10.992 30.9945 11.1452 29.436 11.1452H26.5129V13.7091H27.5312C27.9702 13.7091 28.3261 14.066 28.3261 14.5063V18.4768C27.4577 17.0487 25.9699 16.167 23.5627 16.1721C19.4794 16.1806 17.0033 19.7069 16.8681 24.0507C16.7334 28.3945 19.4443 31.9531 23.4711 31.9446C26.4026 31.9384 27.8842 30.6856 28.6332 28.7633C28.7147 29.9599 28.825 31.2189 28.8657 31.5026H34.7022V28.9386H33.857V28.9381ZM25.3883 28.9732C22.1038 28.9732 21.7836 25.6002 21.7836 23.7982C21.7836 20.6765 23.0808 19.1367 25.1021 19.135C27.0515 19.1333 28.3945 20.6447 28.3945 23.7931C28.3945 26.9415 27.3547 28.9732 25.3883 28.9732Z" fill="#2D2220"/>
<path d="M108.786 26.3463C108.375 28.0207 107.407 29.0567 105.763 29.0567C103.366 29.0567 102.282 27.1083 102.282 24.9392L112.889 24.9353V24.2312C112.889 19.16 110.335 16.1807 105.472 16.1807C100.61 16.1807 97.6084 19.3438 97.6084 24.0371C97.6084 28.7305 100.253 31.9446 105.675 31.9446C109.535 31.9446 111.695 30.0434 112.637 27.7619L108.785 26.3463H108.786ZM105.493 18.7821C107.375 18.7821 108.189 19.8431 108.25 22.6902H102.39C102.553 19.935 103.591 18.7821 105.493 18.7821H105.493Z" fill="#2D2220"/>
<path d="M97.6992 13.6185V11.1583C97.2823 10.9342 96.2148 10.6074 94.9843 10.6074C91.456 10.6074 90.0021 11.9436 90.0021 15.7779V16.5836H88.0498V19.1436H90.0021V28.1342C90.0021 28.5745 89.6457 28.9314 89.2067 28.9314H88.2829V31.4954H96.2142V28.9314H95.4431C95.0041 28.9314 94.6483 28.5745 94.6483 28.1342V19.1436H97.181V16.5836H94.568C94.5651 16.5399 94.5629 16.3334 94.5606 16.2914C94.4452 13.9941 94.9408 13.4574 96.505 13.4227C96.5542 13.4216 96.6108 13.4227 96.6724 13.4256C96.9242 13.4352 97.4769 13.5322 97.6998 13.6179L97.6992 13.6185Z" fill="#2D2220"/>
<path d="M83.3566 15.5022C84.9734 15.5022 86.102 14.3498 86.102 12.8712C86.102 11.3927 84.9734 10.2607 83.3566 10.2607C81.7398 10.2607 80.5908 11.4131 80.5908 12.8712C80.5908 14.3294 81.6787 15.5022 83.3566 15.5022Z" fill="#2D2220"/>
<path d="M86.5408 28.9317C86.1018 28.9317 85.746 28.5748 85.746 28.1345V16.2378C85.0541 16.4114 83.6789 16.5646 82.1203 16.5646H79.1973V19.1286H80.2156C80.6545 19.1286 81.0104 19.4855 81.0104 19.9257L81.0076 28.1345C81.0076 28.5748 80.6517 28.9317 80.2127 28.9317H79.2889V31.4957H87.3119V28.9317H86.5408Z" fill="#2D2220"/>
<path d="M77.5474 28.9314C77.1084 28.9314 76.7525 28.5746 76.7525 28.1343V10.8628C76.0607 11.0364 74.6854 11.1896 73.1269 11.1896H70.2038V13.7536H71.2221C71.6611 13.7536 72.0169 14.1105 72.0169 14.5507L72.0141 28.1343C72.0141 28.5746 71.6583 28.9314 71.2193 28.9314H69.2613C68.8461 28.9314 68.5005 28.6109 68.4688 28.195L67.9834 21.8523C67.6095 18.0764 65.165 16.1314 63.1352 16.1314C60.7722 16.1314 58.7905 17.0812 57.843 19.0324V16.2029C57.1302 16.3766 55.7549 16.5502 54.2167 16.5502H51.4668V19.1141H52.3731C52.8121 19.1141 53.1679 19.471 53.1679 19.9113V28.1337C53.1679 28.574 52.8121 28.9309 52.3731 28.9309H51.4668V31.4949H59.4524V28.9309H58.6989C58.2599 28.9309 57.9041 28.574 57.9041 28.1337V23.517C57.9041 20.5036 59.2239 19.1754 61.0472 19.1754C61.8171 19.1754 63.0792 19.871 63.2472 21.9436L63.7354 28.0702C63.7722 28.5343 63.4073 28.9309 62.9429 28.9309H62.1871V31.4949H78.3179V28.9309H77.5468L77.5474 28.9314Z" fill="#2D2220"/>
</svg>
